<svg width="30" height="30" viewBox="0 0 30 30" fill="none" xmlns="http://www.w3.org/2000/svg">
  <path d="M18.5 4.5V16.25C18.5 18.873 16.373 21 13.75 21C11.127 21 9 18.873 9 16.25C9 13.627 11.127 11.5 13.75 11.5C14.164 11.5 14.563 11.553 14.938 11.652V8.35C14.556 8.286 14.16 8.25 13.75 8.25C9.332 8.25 5.75 11.832 5.75 16.25C5.75 20.668 9.332 24.25 13.75 24.25C18.168 24.25 21.75 20.668 21.75 16.25V10.35C23.066 11.35 24.66 11.95 26.4 11.95V8.55C24.55 8.55 22.9 7.55 21.85 5.95C20.95 4.6 19.8 4.5 18.5 4.5Z" fill="#C8C8C8"/>
</svg>
