<svg width="46" height="46" viewBox="0 0 46 46" fill="none" xmlns="http://www.w3.org/2000/svg">
<path d="M14.2981 37.0665H10.618C4.98303 36.664 2.45312 32.3324 2.45312 28.4799C2.45312 24.6274 4.98305 20.2765 10.5222 19.8932C11.3081 19.8165 11.998 20.4299 12.0555 21.2349C12.113 22.0207 11.519 22.7107 10.714 22.7682C6.99562 23.0365 5.32812 25.8348 5.32812 28.499C5.32812 31.1632 6.99562 33.9615 10.714 34.2299H14.2981C15.0839 34.2299 15.7356 34.8815 15.7356 35.6674C15.7356 36.4532 15.0839 37.0665 14.2981 37.0665Z" fill="currentColor"/>
<path d="M31.9483 37.0668C31.9099 37.0668 31.8908 37.0668 31.8525 37.0668C31.0666 37.0668 30.3383 36.4151 30.3383 35.6293C30.3383 34.8051 30.9517 34.1918 31.7567 34.1918C34.1142 34.1918 36.2225 33.3676 37.8708 31.8918C40.8608 29.2851 41.0525 25.5285 40.2475 22.8835C39.4425 20.2576 37.2 17.2485 33.29 16.7693C32.6575 16.6926 32.1591 16.2135 32.0441 15.581C31.2774 10.981 28.805 7.79929 25.0483 6.64929C21.1767 5.44179 16.6533 6.63012 13.8358 9.58179C11.0949 12.4376 10.4624 16.4435 12.0533 20.8518C12.3216 21.5993 11.9384 22.4235 11.1909 22.6918C10.4434 22.9601 9.61915 22.5768 9.35082 21.8293C7.41499 16.4243 8.29667 11.2493 11.7658 7.60763C15.3117 3.88929 21.0042 2.41345 25.8917 3.90844C30.3767 5.28844 33.5391 8.98761 34.6891 14.1243C38.5991 15.0059 41.7425 17.9768 42.9883 22.0785C44.3491 26.5443 43.1225 31.1443 39.7683 34.0576C37.6408 35.9743 34.8616 37.0668 31.9483 37.0668Z" fill="currentColor"/>
<path d="M22.9974 42.7018C19.1449 42.7018 15.5416 40.651 13.5674 37.3352C13.3566 37.0093 13.1458 36.626 12.9733 36.2043C12.3216 34.8435 11.9766 33.291 11.9766 31.681C11.9766 25.6052 16.9216 20.6602 22.9974 20.6602C29.0732 20.6602 34.0182 25.6052 34.0182 31.681C34.0182 33.3102 33.6733 34.8435 32.9833 36.2618C32.8299 36.626 32.6191 37.0093 32.3891 37.3735C30.4533 40.651 26.8499 42.7018 22.9974 42.7018ZM22.9974 23.5352C18.5124 23.5352 14.8516 27.196 14.8516 31.681C14.8516 32.8693 15.1007 33.981 15.5799 34.9968C15.7332 35.3226 15.8674 35.591 16.0207 35.8402C17.4774 38.3127 20.1415 39.8268 22.9782 39.8268C25.8149 39.8268 28.479 38.3127 29.9165 35.8785C30.089 35.591 30.2424 35.3226 30.3574 35.0543C30.8749 34.0001 31.124 32.8885 31.124 31.7001C31.1432 27.196 27.4824 23.5352 22.9974 23.5352Z" fill="currentColor"/>
<path d="M21.9084 35.0183C21.5442 35.0183 21.1801 34.8841 20.8926 34.5966L18.995 32.6991C18.4392 32.1433 18.4392 31.2233 18.995 30.6674C19.5508 30.1116 20.4708 30.1116 21.0267 30.6674L21.9467 31.5874L25.0134 28.7508C25.6075 28.2141 26.5084 28.2524 27.045 28.8274C27.5817 29.4024 27.5434 30.3224 26.9684 30.8591L22.8859 34.6349C22.5984 34.8841 22.2534 35.0183 21.9084 35.0183Z" fill="currentColor"/>
</svg>
